<?xml version="1.0" standalone="no"?>
<!DOCTYPE svg PUBLIC "-//W3C//DTD SVG 20010904//EN"
 "http://www.w3.org/TR/2001/REC-SVG-20010904/DTD/svg10.dtd">
<svg version="1.0" xmlns="http://www.w3.org/2000/svg"
 width="700.000000pt" height="700.000000pt" viewBox="0 0 700.000000 700.000000"
 preserveAspectRatio="xMidYMid meet">
<metadata>
Created by potrace 1.14, written by Peter Selinger 2001-2017
</metadata>
<g transform="translate(0.000000,700.000000) scale(0.100000,-0.100000)"
fill="#000000" stroke="none">
<path d="M4636 6464 c-121 -68 -223 -124 -228 -124 -4 0 -8 -4 -8 -10 0 -5 -4
-10 -10 -10 -5 0 -141 -75 -302 -166 -315 -179 -359 -203 -428 -242 -25 -14
-81 -46 -125 -72 -44 -25 -87 -49 -95 -53 -8 -4 -31 -17 -50 -28 -19 -11 -109
-63 -200 -114 -91 -51 -181 -102 -200 -114 -19 -11 -42 -24 -50 -28 -20 -9
-411 -230 -430 -243 -8 -6 -21 -13 -29 -17 -7 -3 -81 -45 -165 -92 l-151 -86
-3 -405 c-1 -223 -4 -573 -5 -778 l-2 -374 315 -185 c173 -102 389 -230 480
-283 91 -54 247 -146 348 -205 148 -87 180 -110 171 -121 -6 -8 -15 -14 -20
-14 -4 0 -34 -15 -66 -34 -75 -44 -403 -230 -468 -266 -27 -15 -99 -55 -160
-90 -60 -34 -132 -75 -160 -91 -27 -15 -138 -77 -245 -138 -107 -61 -199 -112
-203 -114 -5 -1 -11 -236 -13 -522 -3 -286 -6 -636 -8 -778 -2 -185 1 -257 9
-257 6 0 37 16 69 35 32 19 59 35 61 35 1 0 78 43 171 96 93 53 198 112 234
131 36 20 70 39 75 43 6 4 30 19 55 32 25 14 182 103 350 198 663 376 883 500
888 500 3 0 13 6 21 14 9 7 45 29 81 48 36 20 112 62 170 95 58 33 195 110
305 172 110 62 204 117 210 122 9 9 11 121 18 1188 l2 375 -165 96 c-553 324
-1146 674 -1153 680 -8 7 102 71 768 448 121 68 299 169 395 224 l175 99 4
597 c2 328 4 677 5 775 2 121 -1 177 -8 176 -6 0 -110 -56 -230 -125z"/>
</g>
</svg>
