<svg version="1.1" viewBox="0.0 0.0 865.6929133858267 869.1469816272966" fill="none" stroke="none" stroke-linecap="square" stroke-miterlimit="10" xmlns:xlink="http://www.w3.org/1999/xlink" xmlns="http://www.w3.org/2000/svg"><clipPath id="p.0"><path d="m0 0l865.69293 0l0 869.147l-865.69293 0l0 -869.147z" clip-rule="nonzero"/></clipPath><g clip-path="url(#p.0)"><path fill="#000000" fill-opacity="0.0" d="m0 0l865.69293 0l0 869.147l-865.69293 0z" fill-rule="evenodd"/><path fill="#000000" fill-opacity="0.0" d="m0.8464567 146.57637l0 0c0 -79.530594 64.47228 -144.00288 144.00288 -144.00288l575.99426 0l0 0c38.191956 0 74.81964 15.171689 101.82544 42.177467c27.005737 27.00578 42.17743 63.633472 42.17743 101.82541l0 575.99426c0 79.53058 -64.47229 144.00287 -144.00287 144.00287l-575.99426 0c-79.530594 0 -144.00288 -64.47229 -144.00288 -144.00287z" fill-rule="evenodd"/><path fill="#0050dd" d="m289.6916 434.5735l0 0c0 -79.52899 64.47101 -144.0 144.0 -144.0l0 0c38.191193 0 74.818146 15.171387 101.823364 42.176636c27.005249 27.005219 42.176636 63.632202 42.176636 101.823364l0 0c0 79.52899 -64.47101 144.0 -144.0 144.0l0 0c-79.52899 0 -144.0 -64.47101 -144.0 -144.0z" fill-rule="evenodd"/><path fill="#1d6efc" d="m289.6916 146.57349l0 0c0 -79.529 64.47101 -144.0 144.0 -144.0l0 0c38.191193 0 74.818146 15.171384 101.823364 42.176624c27.005249 27.005241 42.176636 63.632202 42.176636 101.82337l0 0c0 79.52901 -64.47101 144.0 -144.0 144.0l0 0c-79.52899 0 -144.0 -64.47099 -144.0 -144.0z" fill-rule="evenodd"/><path fill="#003faa" d="m577.6916 434.5735l0 0c0 -79.52899 64.47101 -144.0 144.0 -144.0l0 0c38.191162 0 74.81818 15.171387 101.823364 42.176636c27.005249 27.005219 42.176636 63.632202 42.176636 101.823364l0 0c0 79.52899 -64.47101 144.0 -144.0 144.0l0 0c-79.52899 0 -144.0 -64.47101 -144.0 -144.0z" fill-rule="evenodd"/><path fill="#003faa" d="m289.6916 722.5735l0 0c0 -79.52899 64.47101 -144.0 144.0 -144.0l0 0c38.191193 0 74.818146 15.171387 101.823364 42.176636c27.005249 27.005249 42.176636 63.632202 42.176636 101.823364l0 0c0 79.52899 -64.47101 144.0 -144.0 144.0l0 0c-79.52899 0 -144.0 -64.47101 -144.0 -144.0z" fill-rule="evenodd"/><path fill="#1d6efc" d="m1.691601 434.5735l0 0c0 -79.52899 64.47099 -144.0 144.0 -144.0l0 0c38.191177 0 74.81813 15.171387 101.82338 42.176636c27.005219 27.005219 42.176605 63.632202 42.176605 101.823364l0 0c0 79.52899 -64.47098 144.0 -143.99998 144.0l0 0c-79.52901 0 -144.0 -64.47101 -144.0 -144.0z" fill-rule="evenodd"/><path fill="#4488ff" d="m1.691601 146.57349l0 0c0 -79.529 64.47099 -144.0 144.0 -144.0l0 0c38.191177 0 74.81813 15.171384 101.82338 42.176624c27.005219 27.005241 42.176605 63.632202 42.176605 101.82337l0 0c0 79.52901 -64.47098 144.0 -143.99998 144.0l0 0c-79.52901 0 -144.0 -64.47099 -144.0 -144.0z" fill-rule="evenodd"/><path fill="#0050dd" d="m577.6916 146.57349l0 0c0 -79.529 64.47101 -144.0 144.0 -144.0l0 0c38.191162 0 74.81818 15.171384 101.823364 42.176624c27.005249 27.005241 42.176636 63.632202 42.176636 101.82337l0 0c0 79.52901 -64.47101 144.0 -144.0 144.0l0 0c-79.52899 0 -144.0 -64.47099 -144.0 -144.0z" fill-rule="evenodd"/><path fill="#0050dd" d="m1.691601 722.5735l0 0c0 -79.52899 64.47099 -144.0 144.0 -144.0l0 0c38.191177 0 74.81813 15.171387 101.82338 42.176636c27.005219 27.005249 42.176605 63.632202 42.176605 101.823364l0 0c0 79.52899 -64.47098 144.0 -143.99998 144.0l0 0c-79.52901 0 -144.0 -64.47101 -144.0 -144.0z" fill-rule="evenodd"/><path fill="#012f78" d="m577.6916 722.5735l0 0c0 -79.52899 64.47101 -144.0 144.0 -144.0l0 0c38.191162 0 74.81818 15.171387 101.823364 42.176636c27.005249 27.005249 42.176636 63.632202 42.176636 101.823364l0 0c0 79.52899 -64.47101 144.0 -144.0 144.0l0 0c-79.52899 0 -144.0 -64.47101 -144.0 -144.0z" fill-rule="evenodd"/></g></svg>