<svg version="1.1" viewBox="0.0 0.0 2880.0 960.0" fill="none" stroke="none" stroke-linecap="square" stroke-miterlimit="10" xmlns:xlink="http://www.w3.org/1999/xlink" xmlns="http://www.w3.org/2000/svg"><clipPath id="p.0"><path d="m0 0l2880.0 0l0 960.0l-2880.0 0l0 -960.0z" clip-rule="nonzero"/></clipPath><g clip-path="url(#p.0)"><path fill="#000000" fill-opacity="0.0" d="m0 0l2880.0 0l0 960.0l-2880.0 0z" fill-rule="evenodd"/><path fill="#000000" fill-opacity="0.0" d="m-0.018444883 0l2354.5818 0l0 826.96063l-2354.5818 0z" fill-rule="evenodd"/><path fill="#000000" d="m251.4503 476.74188l221.31252 0l0 85.625l-221.31252 0l0 -85.625zm7.9062653 253.57812l-106.70314 0l0 -461.0625l348.42188 0l0 85.625l-241.71875 0l0 375.4375zm314.17828 0l0 -461.0625l106.703125 0l0 461.0625l-106.703125 0zm216.0393 0l0 -461.0625l88.25 0l272.0312 331.96875l-42.8125 0l0 -331.96875l105.390625 0l0 461.0625l-87.609375 0l-272.68744 -331.96875l42.8125 0l0 331.96875l-105.375 0zm630.3349 -275.3125l221.96875 0l0 82.984375l-221.96875 0l0 -82.984375zm7.90625 189.6875l250.9375 0l0 85.625l-356.98438 0l0 -461.0625l348.42188 0l0 85.625l-242.375 0l0 289.8125zm278.59778 85.625l198.26562 -273.34375l0 77.71875l-189.70312 -265.4375l121.203125 0l131.0625 185.07812l-50.703125 0.671875l129.09375 -185.75l115.921875 0l-188.375 260.82812l0 -76.40625l199.5625 276.64062l-123.15625 0l-135.6875 -195.625l48.734375 0l-133.70312 195.625l-122.515625 0z" fill-rule="nonzero"/><path fill="#000000" d="m2297.2415 605.7276l265.32056 -129.88507l265.3208 0l-530.64136 259.77008z" fill-rule="evenodd"/><path stroke="#000000" stroke-width="1.0" stroke-linejoin="round" stroke-linecap="butt" d="m2297.2415 605.7276l265.32056 -129.88507l265.3208 0l-530.64136 259.77008z" fill-rule="evenodd"/><path fill="#000000" d="m2701.4465 537.39056l-257.52148 -108.78635l-128.0857 -170.61896l515.04297 217.5727z" fill-rule="evenodd"/><path stroke="#000000" stroke-width="1.0" stroke-linejoin="round" stroke-linecap="butt" d="m2701.4465 537.39056l-257.52148 -108.78635l-128.0857 -170.61896l515.04297 217.5727z" fill-rule="evenodd"/></g></svg>