<svg version="1.1" viewBox="0.0 0.0 3000.0 3000.0" fill="none" stroke="none" stroke-linecap="square" stroke-miterlimit="10" xmlns:xlink="http://www.w3.org/1999/xlink" xmlns="http://www.w3.org/2000/svg"><clipPath id="p.0"><path d="m0 0l3000.0 0l0 3000.0l-3000.0 0l0 -3000.0z" clip-rule="nonzero"/></clipPath><g clip-path="url(#p.0)"><path fill="#000000" fill-opacity="0.0" d="m0 0l3000.0 0l0 3000.0l-3000.0 0z" fill-rule="evenodd"/><path fill="#4b8063" d="m911.9639 2825.8914l5.952759 -665.3386l573.57477 337.18115z" fill-rule="evenodd"/><path stroke="#4b8063" stroke-width="3.0" stroke-linejoin="round" stroke-linecap="butt" d="m911.9639 2825.8914l5.952759 -665.3386l573.57477 337.18115z" fill-rule="evenodd"/><path fill="#579774" d="m1491.4974 2497.7512l5.952759 -665.3385l573.57495 337.18103z" fill-rule="evenodd"/><path stroke="#579774" stroke-width="3.0" stroke-linejoin="round" stroke-linecap="butt" d="m1491.4974 2497.7512l5.952759 -665.3385l573.57495 337.18103z" fill-rule="evenodd"/><path fill="#4b8063" d="m1496.607 1832.9037l-5.9526367 665.3385l-573.5749 -337.18115z" fill-rule="evenodd"/><path stroke="#4b8063" stroke-width="3.0" stroke-linejoin="round" stroke-linecap="butt" d="m1496.607 1832.9037l-5.9526367 665.3385l-573.5749 -337.18115z" fill-rule="evenodd"/><path fill="#579774" d="m2076.1406 1504.7635l-5.9526367 665.3385l-573.57495 -337.18103z" fill-rule="evenodd"/><path stroke="#579774" stroke-width="3.0" stroke-linejoin="round" stroke-linecap="butt" d="m2076.1406 1504.7635l-5.9526367 665.3385l-573.57495 -337.18103z" fill-rule="evenodd"/><path fill="#67a778" d="m1496.5911 1832.9084l5.952759 -665.3386l573.5748 337.18115z" fill-rule="evenodd"/><path stroke="#67a778" stroke-width="3.0" stroke-linejoin="round" stroke-linecap="butt" d="m1496.5911 1832.9084l5.952759 -665.3386l573.5748 337.18115z" fill-rule="evenodd"/><path fill="#67a778" d="m1503.409 1167.0925l-5.952759 665.3385l-573.5748 -337.18103z" fill-rule="evenodd"/><path stroke="#67a778" stroke-width="3.0" stroke-linejoin="round" stroke-linecap="butt" d="m1503.409 1167.0925l-5.952759 665.3385l-573.5748 -337.18103z" fill-rule="evenodd"/><path fill="#7cb484" d="m1507.9882 502.53928l-5.7008057 665.181l-573.3229 -337.33856z" fill-rule="evenodd"/><path stroke="#7cb484" stroke-width="3.0" stroke-linejoin="round" stroke-linecap="butt" d="m1507.9882 502.53928l-5.7008057 665.181l-573.3229 -337.33856z" fill-rule="evenodd"/><path fill="#8fbc8f" d="m2088.0361 174.10858l-5.952881 665.33856l-573.5747 -337.1811z" fill-rule="evenodd"/><path stroke="#8fbc8f" stroke-width="3.0" stroke-linejoin="round" stroke-linecap="butt" d="m2088.0361 174.10858l-5.952881 665.33856l-573.5747 -337.1811z" fill-rule="evenodd"/><path fill="#8fbc8f" d="m1503.393 1167.0973l5.952759 -665.3386l573.5747 337.18112z" fill-rule="evenodd"/><path stroke="#8fbc8f" stroke-width="3.0" stroke-linejoin="round" stroke-linecap="butt" d="m1503.393 1167.0973l5.952759 -665.3386l573.5747 337.18112z" fill-rule="evenodd"/><path fill="#7cb484" d="m923.85944 1495.2373l5.952759 -665.3385l573.57477 337.18103z" fill-rule="evenodd"/><path stroke="#7cb484" stroke-width="3.0" stroke-linejoin="round" stroke-linecap="butt" d="m923.85944 1495.2373l5.952759 -665.3385l573.57477 337.18103z" fill-rule="evenodd"/></g></svg>